<?xml version="1.0" encoding="UTF-8"?>
<!DOCTYPE svg PUBLIC "-//W3C//DTD SVG 1.1//EN" "http://www.w3.org/Graphics/SVG/1.1/DTD/svg11.dtd">
<svg xmlns="http://www.w3.org/2000/svg" version="1.1" width="865px" height="723px" style="shape-rendering:geometricPrecision; text-rendering:geometricPrecision; image-rendering:optimizeQuality; fill-rule:evenodd; clip-rule:evenodd" xmlns:xlink="http://www.w3.org/1999/xlink">
<g><path style="opacity:1" fill="#fefefe" d="M -0.5,-0.5 C 287.833,-0.5 576.167,-0.5 864.5,-0.5C 864.5,240.5 864.5,481.5 864.5,722.5C 576.167,722.5 287.833,722.5 -0.5,722.5C -0.5,481.5 -0.5,240.5 -0.5,-0.5 Z"/></g>
<g><path style="opacity:1" fill="#1e1e1e" d="M 552.5,133.5 C 553.586,133.62 554.253,134.287 554.5,135.5C 554.189,140.646 551.689,144.313 547,146.5C 546.333,151.833 546.333,157.167 547,162.5C 555.333,170.833 563.667,179.167 572,187.5C 576.319,195.827 582.152,202.993 589.5,209C 597.187,214.031 604.854,219.031 612.5,224C 620.505,228.17 628.839,231.503 637.5,234C 638.576,235.726 638.743,237.559 638,239.5C 637.691,238.234 637.191,237.067 636.5,236C 612.922,228.307 592.755,215.474 576,197.5C 573.667,193.833 571.333,190.167 569,186.5C 561.689,178.857 554.023,171.524 546,164.5C 544.473,158.585 544.139,152.585 545,146.5C 546.721,144.289 548.721,142.289 551,140.5C 551.977,138.26 552.477,135.927 552.5,133.5 Z"/></g>
</svg>
