<svg version="1.1" id="Layer_1" xmlns="http://www.w3.org/2000/svg" xmlns:xlink="http://www.w3.org/1999/xlink" x="0px" y="0px"
	 width="100%" viewBox="0 0 865 723" enable-background="new 0 0 865 723" xml:space="preserve">
<path fill="none" opacity="1.000000" stroke="#000000" stroke-linecap="round" stroke-linejoin="round" stroke-width="3.000000"
	d="
M739.000000,679.500000 
	C736.333374,668.500000 733.667542,657.499817 730.999695,646.500061 
	C728.280151,635.287292 727.074219,624.092896 728.807617,612.471313 
	C729.853210,605.460571 729.033264,598.166443 728.985413,591.000122 
	C728.962769,587.605469 726.506897,587.489502 724.000000,587.495422 
	C718.000000,587.509644 711.983337,587.211060 706.003174,587.555542 
	C689.670105,588.496399 673.332764,587.820984 656.999512,587.921875 
	C653.002747,587.946594 648.957092,587.219666 645.009949,586.449036 
	C638.963684,585.268433 638.216675,585.859619 636.887512,591.473389 
	C636.129028,594.677002 636.012207,597.806213 636.010071,601.000000 
	C635.992249,627.500000 636.001160,654.000000 635.998962,680.500000 
	C635.998535,685.922241 635.005188,686.979614 629.500000,686.987671 
	C608.500000,687.018311 587.395264,688.314697 566.527710,686.652344 
	C542.817993,684.763489 519.142334,686.024597 495.513245,684.753601 
	C484.529633,684.162781 473.358704,684.902344 462.469116,682.120911 
	C459.333435,681.319946 458.061737,679.974182 456.890656,677.043701 
	C450.632629,661.384277 448.473450,645.067383 450.204285,628.521362 
	C451.522888,615.916382 452.002136,603.002625 456.683319,591.021301 
	C466.277496,592.896790 475.685974,592.172913 484.996002,591.874756 
	C500.175476,591.388489 515.239990,591.007629 530.019958,595.433289 
	C533.216431,596.390381 536.651611,596.682190 540.003357,596.959290 
	C545.723328,597.432251 547.030579,596.774902 548.412598,590.480835 
	C549.614807,585.005310 549.437500,579.636475 547.762207,573.923096 
	C545.806213,567.252319 545.673279,560.013916 545.062378,552.994568 
	C544.716858,549.024658 545.084106,544.997864 544.983521,541.000427 
	C544.730469,530.943909 545.300110,521.115662 548.863892,511.449829 
	C551.870361,503.295715 550.525208,501.761536 542.001892,502.054993 
	C528.661438,502.514343 515.271667,502.764160 502.021606,504.199432 
	C493.138000,505.161682 484.333160,504.702576 475.498322,504.936035 
	C471.841858,505.032654 468.252686,505.853943 464.471771,505.152008 
	C461.634949,504.625366 460.158020,503.337921 458.982422,501.008881 
	C456.248596,495.592834 455.166748,489.573425 452.884186,484.047852 
	C447.701080,471.500854 448.182526,458.343018 449.355896,445.532593 
	C450.248535,435.786774 451.999359,425.776581 455.959869,416.482910 
	C457.173584,413.634857 459.038330,412.929230 462.000183,412.937531 
	C496.666565,413.034943 531.366516,413.917725 565.987854,412.664764 
	C587.660645,411.880402 609.329346,411.500214 630.992798,410.782043 
	C640.344482,410.472015 642.908264,409.783447 643.023010,422.499786 
	C643.116760,432.890503 641.710083,443.169647 640.965271,453.497498 
	C640.891785,454.516235 640.375183,455.516266 639.993713,456.497559 
	C634.960571,469.446350 636.088013,482.690094 637.957397,496.005981 
	C638.481506,499.739441 640.122803,501.145844 644.001343,501.078217 
	C657.408447,500.844360 670.687500,502.765564 684.020142,503.717834 
	C695.248535,504.519775 706.719849,505.175720 718.003052,503.015930 
	C718.646179,502.892792 719.333679,503.014801 719.999939,502.997803 
	C728.767822,502.774048 732.240417,499.667267 732.969482,490.997437 
	C733.584595,483.682617 734.189819,476.374390 734.061035,468.998932 
	C733.840027,456.336121 733.607605,443.650635 734.123779,431.005066 
	C734.539246,420.825104 732.038574,411.026550 731.358948,401.009583 
	C731.259644,399.546051 731.039856,397.988983 731.035339,396.499878 
	C730.980774,378.500061 731.097595,360.499084 730.931458,342.500641 
	C730.889954,337.996399 729.993164,333.500732 729.502380,328.999756 
	C729.173584,325.983978 727.324158,324.698914 724.513123,323.950684 
	C716.630432,321.852386 708.549255,321.424377 700.497375,321.057953 
	C682.290955,320.229492 664.156433,322.015228 645.997314,322.947479 
	C639.598267,323.276001 639.241638,322.523865 637.463318,316.010010 
	C633.704041,302.240631 632.415283,288.192657 632.537170,274.000305 
	C632.644653,261.490173 631.718445,248.944489 633.873718,236.478165 
	C634.201538,234.581680 635.281067,233.476776 635.707153,232.056351 
	C637.972656,232.756088 640.007202,233.976654 641.996765,233.907196 
	C661.319214,233.232437 680.178406,239.664795 699.486755,237.858627 
	C708.891174,236.978912 718.429504,236.315903 727.551819,233.149231 
	C729.513550,232.468246 730.932800,231.395889 730.871582,230.005646 
	C730.622620,224.343750 733.273682,219.226593 733.145752,213.496750 
	C732.747742,195.672302 734.183472,177.733749 732.693542,160.025787 
	C730.923767,138.992554 730.608459,117.994064 731.232666,97.006920 
	C731.629272,83.669266 731.839233,70.337273 731.986267,56.999847 
	C732.041077,52.032288 731.070007,51.026165 726.000000,51.017876 
	C701.666748,50.978088 677.333313,50.980373 653.000000,51.016808 
	C648.218628,51.023968 647.049500,52.375233 647.019775,58.000103 
	C646.955505,70.166428 647.587524,82.368980 646.852112,94.491028 
	C645.921143,109.835197 646.033691,125.162331 646.060242,140.499893 
	C646.067566,144.734283 643.647827,145.018250 640.500000,145.014236 
	C619.166687,144.987000 597.833313,145.000000 576.500000,145.000000 
	C569.000000,145.000000 561.498962,144.925537 554.000488,145.032440 
	C550.424927,145.083405 548.901306,143.575882 548.977417,139.999512 
	C549.519775,114.500420 550.022278,89.000389 550.470215,63.499477 
	C550.522888,60.503330 550.424011,57.457088 549.932739,54.511219 
	C549.361389,51.085331 547.302673,48.980400 543.500000,48.986420 
	C524.666687,49.016228 505.827606,48.733006 487.002960,49.137863 
	C479.957336,49.289391 472.885529,50.586754 465.983948,52.440193 
	C463.921295,52.994125 461.667633,52.953808 459.499756,52.971176 
	C456.412018,52.995914 454.888458,54.412189 455.003906,57.499855 
	C455.552094,72.161766 454.664978,86.812370 455.761963,101.517754 
	C456.849976,116.103256 455.307922,130.873703 456.160522,145.490631 
	C457.473663,168.002670 456.518982,190.503250 457.079254,212.998032 
	C457.208282,218.178085 458.247833,223.346298 459.029083,228.495575 
	C459.581085,232.133850 462.664368,232.981827 465.497559,232.907333 
	C474.165192,232.679382 482.811279,233.447678 491.528320,232.197556 
	C498.387268,231.213898 505.500000,232.000000 512.500000,232.000000 
	C521.169861,232.000000 529.839722,232.000000 538.903564,232.000000 
	C539.220032,238.815964 538.761902,245.196228 539.942017,251.510834 
	C542.081116,262.956451 542.746765,274.653595 545.596313,285.975769 
	C545.948486,287.375305 545.941162,288.675873 545.963257,290.000610 
	C546.052063,295.332489 545.553528,300.713226 546.103943,305.989166 
	C546.942322,314.025787 544.075623,321.605774 543.927063,329.498627 
	C543.861023,333.009613 540.697876,333.758453 537.996033,333.941406 
	C520.670471,335.114716 503.300751,335.309570 486.012085,333.856201 
	C475.446655,332.968018 465.039673,330.289703 454.481201,329.178650 
	C450.024658,328.709686 445.528290,327.938812 441.000031,328.001953 
	C425.531525,328.217529 410.287445,326.093170 394.975830,324.194824 
	C385.024017,322.961029 375.033752,321.734283 365.015289,320.830627 
	C349.349915,319.417511 333.665680,319.689758 317.998810,319.027893 
	C313.733856,318.847717 309.643860,320.042603 305.472900,320.862061 
	C297.270203,322.473663 288.851990,322.803070 280.504150,322.411438 
	C273.981415,322.105438 271.141449,318.806213 271.061707,311.499329 
	C270.870728,294.001404 270.396545,276.469727 271.272034,259.013641 
	C271.668915,251.099915 274.713867,243.243546 277.130768,235.541031 
	C278.205139,232.117126 281.243805,231.815582 285.021545,232.346710 
	C301.622284,234.680649 318.027893,239.103134 334.997162,237.958115 
	C343.470551,237.386368 351.788330,235.647034 359.991882,233.469376 
	C363.180817,232.622833 365.005615,230.691025 365.063324,227.000992 
	C365.198883,218.331223 365.947723,209.665955 365.925568,201.000183 
	C365.900452,191.193253 367.344788,181.622726 368.906189,171.984802 
	C371.354004,156.875397 371.097809,141.656967 368.885651,126.516708 
	C368.688690,125.168983 368.542633,123.822136 368.533844,122.499779 
	C368.403290,102.832710 368.852600,83.159012 367.950287,63.502281 
	C367.804169,60.319370 367.291260,57.085274 366.434265,54.018364 
	C365.015015,48.939274 360.160919,49.587700 356.486816,49.099159 
	C339.883270,46.891411 323.166077,48.358910 306.499023,48.053062 
	C303.504150,47.998104 300.341248,48.483513 297.551636,49.200859 
	C292.049713,50.615681 286.597321,51.205948 281.000946,50.976723 
	C278.429443,50.871395 276.862732,51.351810 276.956726,54.501293 
	C277.428284,70.302322 276.549377,86.234108 281.973206,101.509506 
	C282.183441,102.101532 282.000000,102.833336 282.000000,103.500000 
	C282.000000,117.166664 281.954834,130.833603 282.039429,144.499756 
	C282.055664,147.125534 281.117188,147.992844 278.501221,148.053314 
	C268.893768,148.275391 259.377350,147.805603 249.990967,145.537399 
	C248.220734,145.109634 246.333633,145.026001 244.499954,145.021942 
	C227.666702,144.984680 210.831757,144.876480 194.001144,145.090393 
	C189.999344,145.141266 188.417923,144.005219 188.987305,139.998199 
	C192.907181,112.412766 190.246033,84.664642 190.973312,56.999298 
	C191.152237,50.193638 189.835129,49.271484 183.002792,48.941990 
	C173.927444,48.504322 164.992172,46.707623 155.986801,45.608036 
	C149.056274,44.761795 142.079987,44.485699 134.995544,44.556866 
	C124.467476,44.662621 115.112381,49.005928 105.000183,50.001877 
	C100.395439,50.455399 100.795738,53.961510 101.047714,56.996037 
	C101.947060,67.826347 101.433922,78.667336 101.456757,89.500092 
	C101.483810,102.333160 102.115669,115.194809 100.930946,127.993607 
	C100.125633,136.693726 98.573517,145.322174 97.533234,154.003983 
	C96.856766,159.649506 96.893120,165.401199 95.928688,170.987686 
	C92.602470,190.254913 94.512558,209.661636 94.022026,229.000565 
	C93.902534,233.711258 95.020126,234.675415 99.498474,235.019867 
	C116.315620,236.313354 133.164841,235.753311 149.998505,236.077667 
	C159.140686,236.253799 168.054764,234.836563 176.991348,233.444489 
	C181.342682,232.766663 185.671677,233.263931 189.998764,232.981094 
	C192.351013,232.827301 192.657761,234.125900 192.508408,236.000671 
	C191.380707,250.154984 191.982361,264.337311 192.092697,278.499268 
	C192.192947,291.366364 191.630295,304.072937 188.028961,316.508392 
	C187.806290,317.277252 188.042969,318.169250 187.992813,318.999573 
	C187.726151,323.413391 186.293091,324.924652 182.005646,324.449097 
	C174.651871,323.633392 167.343277,322.418823 159.997726,321.518524 
	C148.204666,320.073120 136.517029,317.825897 124.494865,318.390747 
	C116.021408,318.788879 107.498627,318.215454 99.000648,317.976807 
	C95.423859,317.876404 93.837860,319.423920 93.986298,323.000580 
	C94.557823,336.771332 91.952568,350.125854 89.236168,363.547791 
	C88.339577,367.977936 87.978127,372.800507 87.983269,377.500031 
	C88.016106,407.499969 88.046089,437.500153 87.943237,467.499817 
	C87.929985,471.366852 89.537613,474.808929 89.955780,478.505005 
	C90.556297,483.812836 91.232277,489.116455 91.047249,494.501617 
	C90.891693,499.029297 91.964203,499.970306 96.500046,499.990204 
	C104.499886,500.025269 112.501595,500.102844 120.499664,499.978607 
	C137.106506,499.720612 153.625122,500.151489 170.023758,503.379272 
	C176.066528,504.568726 180.111786,503.081360 180.018570,494.499786 
	C179.931671,486.500732 180.131058,478.497284 179.965012,470.500732 
	C179.779968,461.588440 180.085266,452.749298 181.976974,443.995026 
	C183.469604,437.087524 183.647064,430.029755 183.995590,422.999786 
	C184.028564,422.334747 183.963531,421.664337 184.005569,421.000366 
	C184.504059,413.126221 184.641418,413.000000 192.500000,413.000000 
	C246.333328,413.000000 300.166687,412.971863 353.999908,413.054291 
	C358.227386,413.060760 362.230255,411.643799 366.506622,411.880402 
	C369.555420,412.049103 371.059998,412.401550 371.088043,415.999329 
	C371.163422,425.667969 371.342499,435.358459 372.088623,444.993134 
	C372.879822,455.209717 373.385193,465.433197 375.786255,475.550720 
	C377.544220,482.958405 377.349121,490.832031 377.991821,498.500702 
	C378.230743,501.351349 376.843048,502.916931 374.005798,502.463715 
	C362.343536,500.600952 350.461212,500.158447 338.989288,497.039398 
	C337.902924,496.744019 336.666656,497.000000 335.500000,497.000000 
	C325.833344,497.000000 316.165497,496.910828 306.500488,497.036652 
	C301.473602,497.102051 296.792786,496.379028 291.944366,494.656647 
	C281.345398,490.891266 279.667755,492.027466 277.039429,505.007996 
	C276.747650,506.448914 277.002838,508.000000 276.999481,509.500000 
	C276.986053,515.502258 277.427216,521.476868 274.136017,527.079895 
	C272.959900,529.082275 272.989014,531.909790 272.934540,534.498596 
	C272.632446,548.852783 273.340546,563.177490 274.068237,577.496521 
	C274.298065,582.018738 275.313416,586.503052 276.009247,590.998596 
	C276.311523,592.951294 277.589233,593.494629 279.462219,594.114197 
	C285.057037,595.964783 290.423737,594.855896 295.459320,592.895508 
	C305.549408,588.967590 315.856781,588.696289 326.502045,588.811768 
	C338.355377,588.940308 350.139893,590.437927 362.001251,590.036560 
	C367.402161,589.853821 368.562317,591.097351 368.480438,596.499695 
	C368.326294,606.666504 368.898163,616.837646 368.035736,627.003052 
	C367.353302,635.046936 371.228607,642.312744 372.374939,650.018616 
	C373.946625,660.584106 374.235962,671.314575 373.902924,681.996948 
	C373.765564,686.402893 370.467743,688.877563 365.999847,688.994080 
	C353.316589,689.324829 340.632965,689.018738 328.009308,687.895447 
	C321.622711,687.327148 315.346191,685.588867 308.993530,684.539124 
	C306.533173,684.132568 304.002075,684.121521 301.499695,684.006958 
	C271.178345,682.617676 240.836319,683.053955 210.499985,683.010681 
	C206.075089,683.004395 201.672302,682.686157 197.432007,684.867859 
	C195.845184,685.684265 193.486252,685.000000 191.856461,685.000000 
	C189.791122,682.102783 190.826843,679.482422 191.046371,677.004089 
	C191.848984,667.943054 189.561005,659.223206 187.839584,650.531799 
	C186.242233,642.466797 187.290894,634.500854 187.027023,626.499084 
	C186.691803,616.332520 185.405548,606.196594 186.003464,596.000183 
	C186.171097,593.141907 184.828888,592.159973 182.005341,591.933411 
	C173.990097,591.290100 165.999542,590.337646 158.000122,589.498901 
	C149.478683,588.605469 140.962952,588.128540 132.501022,590.004578 
	C122.416344,592.240417 112.162437,591.820801 102.011436,591.283813 
	C97.984138,591.070740 97.020126,592.531494 97.061272,595.499146 
	C97.197601,605.332520 96.831573,615.158752 97.352814,625.007812 
	C97.756500,632.635498 97.248032,640.382324 96.350082,647.982300 
	C95.778488,652.820007 96.205467,657.647339 95.144127,662.531311 
	C91.127876,681.013245 93.628799,699.832031 93.023895,718.500793 
	C93.002487,719.161377 93.333336,719.833313 93.500000,720.500000 
"/>
</svg>